<svg width="21" height="24" viewBox="0 0 21 24" fill="none" xmlns="http://www.w3.org/2000/svg">
<path d="M19.7807 18.424C19.4328 19.2275 19.0211 19.9672 18.5441 20.6472C17.8939 21.5743 17.3615 22.216 16.9512 22.5724C16.3152 23.1573 15.6337 23.4568 14.904 23.4739C14.3801 23.4739 13.7483 23.3248 13.0129 23.0224C12.2751 22.7214 11.597 22.5724 10.9771 22.5724C10.3268 22.5724 9.62947 22.7214 8.88355 23.0224C8.1365 23.3248 7.53469 23.4824 7.07456 23.498C6.37478 23.5278 5.67728 23.2197 4.98105 22.5724C4.53669 22.1848 3.98087 21.5204 3.31503 20.5791C2.60063 19.5739 2.01329 18.4084 1.55317 17.0795C1.06038 15.6442 0.813354 14.2543 0.813354 12.9087C0.813354 11.3673 1.14642 10.0379 1.81354 8.92385C2.33784 8.029 3.03534 7.32312 3.90832 6.80493C4.7813 6.28674 5.72456 6.02267 6.74036 6.00578C7.29618 6.00578 8.02506 6.1777 8.93083 6.51559C9.83405 6.85462 10.414 7.02655 10.6683 7.02655C10.8584 7.02655 11.5026 6.82552 12.5948 6.42473C13.6277 6.05305 14.4994 5.89916 15.2135 5.95978C17.1485 6.11595 18.6023 6.87876 19.5691 8.25303C17.8385 9.30163 16.9824 10.7703 16.9995 12.6544C17.0151 14.122 17.5475 15.3432 18.5938 16.3129C19.068 16.7629 19.5975 17.1107 20.1867 17.3578C20.0589 17.7283 19.9241 18.0832 19.7807 18.424ZM15.3427 0.960131C15.3427 2.11039 14.9224 3.18439 14.0848 4.17847C13.074 5.36023 11.8513 6.04311 10.5254 5.93536C10.5086 5.79736 10.4988 5.65213 10.4988 5.49951C10.4988 4.39526 10.9795 3.21349 11.8331 2.24724C12.2593 1.75801 12.8014 1.35122 13.4587 1.02671C14.1146 0.707053 14.735 0.530273 15.3185 0.5C15.3356 0.653772 15.3427 0.807554 15.3427 0.960116V0.960131Z" fill="black"/>
</svg>
