<svg width="11" height="12" viewBox="0 0 11 12" fill="none" xmlns="http://www.w3.org/2000/svg">
<g id="mail-01">
<path id="Icon" d="M0.916626 3.70801L4.65888 6.32759C4.96192 6.53971 5.11344 6.64578 5.27825 6.68686C5.42383 6.72315 5.57609 6.72315 5.72167 6.68686C5.88648 6.64578 6.038 6.53971 6.34104 6.32759L10.0833 3.70801M3.11663 9.66634H7.88329C8.65336 9.66634 9.0384 9.66634 9.33253 9.51648C9.59125 9.38465 9.8016 9.1743 9.93343 8.91558C10.0833 8.62145 10.0833 8.23641 10.0833 7.46634V4.53301C10.0833 3.76294 10.0833 3.3779 9.93343 3.08377C9.8016 2.82505 9.59125 2.6147 9.33253 2.48287C9.0384 2.33301 8.65336 2.33301 7.88329 2.33301H3.11663C2.34655 2.33301 1.96152 2.33301 1.66739 2.48287C1.40867 2.6147 1.19832 2.82505 1.06649 3.08377C0.916626 3.3779 0.916626 3.76294 0.916626 4.53301V7.46634C0.916626 8.23641 0.916626 8.62145 1.06649 8.91558C1.19832 9.1743 1.40867 9.38465 1.66739 9.51648C1.96152 9.66634 2.34655 9.66634 3.11663 9.66634Z" stroke="#787B8C" stroke-width="0.916667" stroke-linecap="round" stroke-linejoin="round"/>
</g>
</svg>
