<svg width="23" height="24" viewBox="0 0 23 24" fill="none" xmlns="http://www.w3.org/2000/svg">
<path fill-rule="evenodd" clip-rule="evenodd" d="M22.54 12.2615C22.54 11.446 22.4668 10.6619 22.3309 9.90918H11.5V14.3576H17.6891C17.4225 15.7951 16.6123 17.013 15.3943 17.8285V20.714H19.1109C21.2855 18.7119 22.54 15.7637 22.54 12.2615Z" fill="#4285F4"/>
<path fill-rule="evenodd" clip-rule="evenodd" d="M11.5 23.5001C14.605 23.5001 17.2081 22.4703 19.1109 20.7139L15.3943 17.8285C14.3645 18.5185 13.0472 18.9262 11.5 18.9262C8.50474 18.9262 5.96951 16.9032 5.06519 14.1851H1.22314V17.1646C3.11542 20.923 7.00451 23.5001 11.5 23.5001Z" fill="#34A853"/>
<path fill-rule="evenodd" clip-rule="evenodd" d="M5.06523 14.185C4.83523 13.495 4.70455 12.7579 4.70455 12C4.70455 11.242 4.83523 10.505 5.06523 9.81499V6.83545H1.22318C0.444318 8.38795 0 10.1443 0 12C0 13.8557 0.444318 15.612 1.22318 17.1645L5.06523 14.185Z" fill="#FBBC05"/>
<path fill-rule="evenodd" clip-rule="evenodd" d="M11.5 5.07386C13.1884 5.07386 14.7043 5.65409 15.8961 6.79364L19.1945 3.49523C17.2029 1.63955 14.5997 0.5 11.5 0.5C7.00451 0.5 3.11542 3.07705 1.22314 6.83545L5.06519 9.815C5.96951 7.09682 8.50474 5.07386 11.5 5.07386Z" fill="#EA4335"/>
</svg>
